<svg xmlns="http://www.w3.org/2000/svg" width="99" height="14" fill="none"><path fill="#FF4D00" d="M5.06 13.4c4.16 0 6.38-2.56 6.38-6.7S9.2 0 5.06 0H0v13.4zM4.78 2c2.78 0 4.3 1.34 4.3 4.7s-1.52 4.7-4.28 4.7H2.26V2zM17.89 13.6c2.16 0 3.48-.98 4.22-2.1l-1.38-1.44c-.36.82-1.12 1.7-2.82 1.7-1.54 0-2.56-.94-2.68-2.68h6.96c.04-.2.08-.62.08-.98 0-2.7-1.62-4.64-4.54-4.64-2.74 0-4.64 2.02-4.64 5.08 0 3.04 1.9 5.06 4.8 5.06m-.16-8.34c1.48 0 2.36.84 2.52 2.38h-5c.18-1.58 1.1-2.38 2.48-2.38M26.514 13.4V0h-2.24v13.4zM33.203 13.6c2.16 0 3.48-.98 4.22-2.1l-1.38-1.44c-.36.82-1.12 1.7-2.82 1.7-1.54 0-2.56-.94-2.68-2.68h6.96c.04-.2.08-.62.08-.98 0-2.7-1.62-4.64-4.54-4.64-2.74 0-4.64 2.02-4.64 5.08 0 3.04 1.9 5.06 4.8 5.06m-.16-8.34c1.48 0 2.36.84 2.52 2.38h-5c.18-1.58 1.1-2.38 2.48-2.38M42.892 13.62c1.42 0 2.38-.66 2.8-1.28l-.7-2c-.28.56-.84 1.18-1.6 1.18-.66 0-1.16-.26-1.16-1.32V5.4h2.98V3.66h-2.98v-2.6l-2.24 1.42v1.18h-1.52V5.4h1.52v5.34c0 1.72 1.06 2.88 2.9 2.88M50.88 13.6c2.16 0 3.48-.98 4.22-2.1l-1.38-1.44c-.36.82-1.12 1.7-2.82 1.7-1.54 0-2.56-.94-2.68-2.68h6.96c.04-.2.08-.62.08-.98 0-2.7-1.62-4.64-4.54-4.64-2.74 0-4.64 2.02-4.64 5.08 0 3.04 1.9 5.06 4.8 5.06m-.16-8.34c1.48 0 2.36.84 2.52 2.38h-5c.18-1.58 1.1-2.38 2.48-2.38M63.663 2.28V0h-2.24v2.28zm0 11.12V3.66h-2.24v9.74zM69.552 13.62c1.42 0 2.38-.66 2.8-1.28l-.7-2c-.28.56-.84 1.18-1.6 1.18-.66 0-1.16-.26-1.16-1.32V5.4h2.98V3.66h-2.98v-2.6l-2.24 1.42v1.18h-1.52V5.4h1.52v5.34c0 1.72 1.06 2.88 2.9 2.88M77.54 13.6c2.16 0 3.48-.98 4.22-2.1l-1.38-1.44c-.36.82-1.12 1.7-2.82 1.7-1.54 0-2.56-.94-2.68-2.68h6.96c.04-.2.08-.62.08-.98 0-2.7-1.62-4.64-4.54-4.64-2.74 0-4.64 2.02-4.64 5.08 0 3.04 1.9 5.06 4.8 5.06m-.16-8.34c1.48 0 2.36.84 2.52 2.38h-5c.18-1.58 1.1-2.38 2.48-2.38M86.123 13.4V7.94c0-1.6.56-2.66 1.88-2.66s1.88.68 1.88 2.02v6.1h2.24V7.94c0-1.6.56-2.66 1.88-2.66s1.88.68 1.88 2.02v6.1h2.24V6.62c0-2.02-.98-3.16-2.84-3.16s-2.82 1.34-3.16 2.88c-.1-1.84-1.06-2.88-2.84-2.88-1.84 0-2.8 1.32-3.16 2.86V3.66h-2.24v9.74z"/></svg>